<?xml version="1.0" encoding="utf-8"?>
<!-- Generator: Adobe Illustrator 22.0.0, SVG Export Plug-In . SVG Version: 6.00 Build 0)  -->
<svg version="1.1" id="Capa_1" xmlns="http://www.w3.org/2000/svg" xmlns:xlink="http://www.w3.org/1999/xlink" x="0px" y="0px"
	 viewBox="0 0 200 108.5" style="enable-background:new 0 0 200 108.5;" xml:space="preserve">
<style type="text/css">
	.st0{fill:#231F20;}
	.st1{fill-rule:evenodd;clip-rule:evenodd;}
</style>
<g>
	<path class="st0" d="M83.9,61.4c0,5.2,2.6,7.8,7.8,7.8c0.1,0,0.1,0,0.2,0c1.3-3.8,2-7.9,2-12.1c0-1.2-0.1-2.3-0.2-3.5
		c-0.6-0.1-1.3-0.2-2-0.2C86.5,53.5,83.9,56.2,83.9,61.4z"/>
	<g>
		<g>
			<path class="st0" d="M93.6,50.7c0.1,0.9,0.3,1.8,0.3,2.7c3.9,0.6,5.8,3.2,5.8,7.7c0,5.2-2.6,7.8-7.6,7.8c-0.3,0.9-0.6,1.7-1,2.6
				c0.3,0,0.5,0,0.8,0c7,0,10.5-3.5,10.5-10.5C102.4,54.7,99.5,51.3,93.6,50.7z"/>
			<path class="st0" d="M135.7,50.7c-4.5,0-7.6,1.5-9.2,4.4c-1.6-2.9-4.7-4.4-9.2-4.4c-3.5,0-6.1,0.9-7.8,2.6v-2.6h-2.6v20.9h2.6
				V61.1c0-5.2,2.6-7.8,7.8-7.8c5.2,0,7.8,2.6,7.8,7.8v10.5h2.6V61.1c0-5.2,2.6-7.8,7.8-7.8c5.2,0,7.8,2.6,7.8,7.8v10.5h2.6V61.1
				C146.2,54.2,142.7,50.7,135.7,50.7z"/>
			<path class="st0" d="M159.3,50.7c-3.5,0-6.1,0.9-7.8,2.6V-1.6h-2.6v62.8c0,7,3.5,10.5,10.5,10.5c7,0,10.5-3.5,10.5-10.5
				C169.7,54.2,166.2,50.7,159.3,50.7z M159.3,69c-5.2,0-7.8-2.6-7.8-7.8c0-5.2,2.6-7.8,7.8-7.8c5.2,0,7.8,2.6,7.8,7.8
				C167.1,66.4,164.5,69,159.3,69z"/>
		</g>
		<path class="st0" d="M182.5,50.7c-7,0-10.5,3.5-10.5,10.5c0,7,3.5,10.5,10.5,10.5c7,0,10.5-3.5,10.5-10.5
			C193,54.2,189.5,50.7,182.5,50.7z M182.5,69c-5.2,0-7.8-2.6-7.8-7.8c0-5.2,2.6-7.8,7.8-7.8c5.2,0,7.8,2.6,7.8,7.8
			C190.4,66.4,187.8,69,182.5,69z"/>
	</g>
	<path class="st1" d="M17.5,19.9c2.8,4.9,5.4,9.6,8.1,14.5c-1.5,1.3-3,2.7-4.5,3.9c-0.2,0.2-0.9,0.2-1.2,0
		c-4.3-2.8-8.5-5.7-12.9-8.7C10.5,26.4,13.9,23.3,17.5,19.9z"/>
	<path class="st1" d="M25.6,20.7c3-0.8,6-1.5,9.1-2.3c0,3.5,0,6.9,0,10.3c0,0.4-0.5,0.9-0.9,1c-3.2,1-3.2,1-4.8-2.1
		c-1.1-2.1-2.2-4.3-3.3-6.4C25.7,21.2,25.7,21,25.6,20.7z"/>
	<path d="M92,50.8c0.6,0,1.2,0,1.7,0.1c-3-18.4-19.4-32.4-39.2-32.4c-6.7,0-13.1,1.6-18.6,4.5c0,2.1,0,4.1-0.1,6.2
		c0,0.5-0.7,1.3-1.3,1.4c-4.3,1.4-4.5,1.4-6.4-2.4c-1.1,0.9-2.1,1.9-3.1,2.9c0.7,1.2,1.3,2.4,2,3.5c-2,1.8-3.9,3.5-5.9,5.2
		c-0.3,0.3-1.2,0.2-1.6,0c-0.1-0.1-0.3-0.2-0.4-0.3c-2.7,5.2-4.3,11.2-4.3,17.5c0,21.3,17.8,38.6,39.7,38.6
		c16.6,0,30.8-9.9,36.7-23.9c-6.5-0.3-9.7-3.7-9.7-10.4C81.5,54.3,85,50.8,92,50.8z M76.9,61.6c-0.3,2.5-1,4.8-2.2,6.9
		c-1.1,2.1-2.8,4.2-5.1,6.4c-5.1,5-10.7,7.3-16.9,7c-6.2-0.3-11.2-2.5-15.2-6.6c-4.2-4.3-6.2-9.6-6.1-15.6
		c0.1-6.1,2.4-11.3,6.9-15.5c2.6-2.6,5.4-4.5,8.4-5.8c2.9-1.3,6.6-2,11-2l-0.1,5.9c-5.9,0-10.8,1.9-14.8,5.7
		c-3.5,3.4-5.3,7.3-5.4,11.7c-0.1,4.5,1.4,8.4,4.6,11.7c2.8,2.9,6.5,4.5,11,4.6c4.5,0.2,8.7-1.6,12.7-5.5c5.9-5.7,7.1-11.9,3.7-18.5
		l-8,7.7l-3.9-4l12.6-12.2c2,2,3.4,3.8,4.3,5.2c0.9,1.5,1.6,3.3,2.2,5.6C77.1,56.7,77.2,59.1,76.9,61.6z"/>
</g>
</svg>
